<svg xmlns:xlink="http://www.w3.org/1999/xlink" xmlns="http://www.w3.org/2000/svg" width="135" height="38" viewBox="0 0 135 38" fill="none">
<path d="M69.6459 21.1612L67.5573 25.2983H70.2492L69.6459 21.1612ZM76.9264 31.6235H71.046L70.7078 29.3484H65.6012L64.4054 31.6235H58.5615L67.3151 15.8091H73.9679L76.9264 31.6235Z" fill="white"/>
<path d="M51.2702 31.6235L48.8908 25.407L46.6452 27.5734L45.8971 31.6235H40.1128L43.0347 15.8091H48.8191L47.6963 21.8666L53.551 15.8091H60.7354L54.3247 22.33L58.0434 31.6235H51.2702Z" fill="white"/>
<path d="M29.6452 27.0496C30.6949 27.0496 31.5282 26.7941 32.1559 26.2587C32.7957 25.7354 33.2191 24.9811 33.3882 23.9958L33.4965 23.4358C33.6777 22.4505 33.5452 21.6962 33.1096 21.1729C32.6632 20.651 31.9273 20.3833 30.8762 20.3833C29.8143 20.3833 28.9688 20.651 28.329 21.1729C27.6891 21.6962 27.2901 22.4505 27.1088 23.4358L27.0006 23.9958C26.8193 24.9811 26.9519 25.7354 27.3875 26.2587C27.8217 26.7941 28.5819 27.0496 29.6452 27.0496ZM28.7037 31.9995C27.194 31.9995 25.9021 31.8051 24.8267 31.4164C23.7405 31.0386 22.872 30.5031 22.2186 29.7977C21.5679 29.1046 21.1202 28.2891 20.9038 27.3174C20.686 26.3674 20.6738 25.31 20.8916 24.1657L21.0485 23.2537C21.2541 22.0985 21.664 21.052 22.243 20.0911C22.8233 19.1425 23.5592 18.327 24.4777 17.6216C25.3827 16.9394 26.446 16.4052 27.677 16.0152C28.8958 15.6387 30.2607 15.4321 31.7704 15.4321C33.2787 15.4321 34.5949 15.6387 35.6703 16.0152C36.7566 16.4052 37.6386 16.9394 38.2892 17.6216C38.9291 18.327 39.3647 19.1425 39.5933 20.0911C39.8233 21.052 39.8233 22.0985 39.6055 23.2537L39.4485 24.1657C39.2321 25.31 38.833 26.3674 38.2541 27.3174C37.6859 28.2891 36.9378 29.1046 36.0315 29.7977C35.1265 30.5031 34.0524 31.0386 32.8323 31.4164C31.6013 31.8051 30.2242 31.9995 28.7037 31.9995Z" fill="white"/>
<path d="M8.47228 25.127C8.35189 25.7604 8.43711 26.2224 8.71442 26.5378C8.97956 26.8422 9.48684 27.0134 10.2119 27.0134C10.96 27.0134 11.5281 26.8544 11.9137 26.5513C12.3006 26.2591 12.5413 25.797 12.6509 25.2004L13.4829 20.748H4.97543L5.88042 15.8091H20.2818L18.5056 25.4437C18.3257 26.4535 17.9875 27.3654 17.5289 28.1809C17.0568 28.9841 16.4535 29.665 15.6932 30.2372C14.933 30.7958 14.0267 31.2348 12.9769 31.5379C11.9015 31.8301 10.6948 31.9999 9.31775 31.9999C7.92983 31.9999 6.75835 31.8301 5.80466 31.5379C4.86315 31.2348 4.11373 30.7836 3.57128 30.2127C3.02748 29.6161 2.66494 28.8985 2.50802 28.0477C2.36328 27.1956 2.37545 26.2224 2.5689 25.127H8.47228Z" fill="white"/>
<path d="M115.528 20.8204L116.447 15.7891H133.333L132.415 20.8204H126.988L124.981 31.6402H118.974L120.98 20.8204H115.528Z" fill="#69F67F"/>
<path d="M96.4586 31.6402L99.3846 15.7891H113.998L113.2 20.1382H104.219L103.893 21.8561H112.33L111.642 25.4753H103.228L102.914 27.2544H112.137L111.327 31.6402H96.4586Z" fill="#69F67F"/>
<path d="M87.5562 27.3155C88.2217 27.3155 88.6925 27.2299 88.959 27.0342C89.2241 26.8521 89.381 26.6088 89.4541 26.2921C89.5028 26.0108 89.4297 25.7675 89.2241 25.5732C89.0185 25.3775 88.6208 25.2918 87.9918 25.2918H84.3163L83.9294 27.3155H87.5562ZM85.2714 20.1137L84.8967 22.1605H88.5112C88.9711 22.1605 89.3337 22.0518 89.5866 21.8683C89.8288 21.6617 89.9857 21.4184 90.0344 21.1126C90.0953 20.8327 90.0222 20.5894 89.8531 20.3937C89.6597 20.2115 89.3337 20.1137 88.825 20.1137H85.2714ZM91.4967 23.7207C91.9932 23.8063 92.4761 23.9395 92.9347 24.1108C93.419 24.3051 93.8302 24.5498 94.1806 24.8542C94.5309 25.1709 94.7974 25.5487 94.9787 25.9741C95.1599 26.4131 95.1965 26.9132 95.0869 27.4976C94.9787 28.0589 94.7609 28.5944 94.4105 29.0932C94.071 29.5934 93.5759 30.0323 92.9482 30.3979C92.3192 30.7758 91.5332 31.0802 90.6025 31.3113C89.6597 31.5314 88.5477 31.6402 87.2302 31.6402H77.6202L80.5449 15.7891H90.1548C91.352 15.7891 92.3557 15.8978 93.1417 16.1302C93.9262 16.349 94.5553 16.6412 95.0274 17.019C95.486 17.4091 95.812 17.8481 95.9567 18.3469C96.1028 18.847 96.1272 19.3703 96.0176 19.9438C95.9215 20.516 95.7159 21.0284 95.4251 21.4538C95.1234 21.8805 94.7852 22.2461 94.3618 22.5505C93.9506 22.8427 93.4798 23.0874 93.0077 23.2817C92.5126 23.453 92.0053 23.5862 91.5089 23.6718L91.4967 23.7207Z" fill="#69F67F"/>
<path d="M9.28808 1.91927C9.09079 2.1046 8.82576 2.21804 8.53436 2.21804C7.92473 2.21804 7.43052 1.72151 7.43052 1.10902C7.43052 0.496525 7.92473 0 8.53436 0C9.144 0 9.6382 0.496525 9.6382 1.10902C9.6382 1.16699 9.63378 1.22392 9.62525 1.27949C13.5435 2.15607 16.4585 5.13976 17.2905 9.0181C19.4743 7.29591 22.1849 6.25588 25.0285 6.25588C25.3288 6.25588 25.6254 6.26775 25.9177 6.29087C26.0204 5.78519 26.4656 5.40471 26.9993 5.40471C27.6089 5.40471 28.1031 5.90124 28.1031 6.51373C28.1031 7.12623 27.6089 7.62275 26.9993 7.62275C26.6067 7.62275 26.262 7.41685 26.0663 7.10667C23.5646 8.69745 21.5893 11.1318 20.6199 13.9742H6.19277C5.81085 11.0885 4.30398 8.62346 2.07898 7.0339C1.89346 7.38423 1.52637 7.62275 1.10384 7.62275C0.494206 7.62275 0 7.12623 0 6.51373C0 5.90124 0.494206 5.40471 1.10384 5.40471C1.63916 5.40471 2.08548 5.78757 2.18634 6.29561C2.50293 6.26941 2.82173 6.25588 3.14233 6.25588C5.98437 6.25588 8.47637 7.29474 10.3001 9.01517C10.3552 8.71327 10.399 8.40807 10.431 8.10002C10.6683 5.82528 10.2342 3.70537 9.28808 1.91927Z" fill="#69F67F"/>
</svg>